<svg width="17" height="16" viewBox="0 0 17 16" fill="none" xmlns="http://www.w3.org/2000/svg">
<path d="M8.4209 0C10.9147 0 13.1544 1.03061 14.6963 2.66699H12.8984C11.6751 1.75294 10.1262 1.2002 8.4209 1.2002C4.37415 1.20028 1.2002 4.30177 1.2002 8C1.2002 11.6982 4.37415 14.7997 8.4209 14.7998C10.1257 14.7998 11.6743 14.2475 12.8975 13.334H14.6953C13.1534 14.9698 10.9142 16 8.4209 16C3.77015 15.9999 0 12.4182 0 8C0 3.58177 3.77015 8.177e-05 8.4209 0Z" fill="#848892"/>
<path d="M7.01733 8.00014H15.4384" stroke="#848892" stroke-width="1.2" stroke-linecap="round" stroke-linejoin="round"/>
<path d="M13.1926 6.00011L15.9996 8.00011" stroke="#848892" stroke-width="1.2" stroke-linecap="round" stroke-linejoin="round"/>
<path d="M16 8.00014L13.193 10.0001" stroke="#848892" stroke-width="1.2" stroke-linecap="round" stroke-linejoin="round"/>
</svg>
