<svg width="39" height="40" viewBox="0 0 39 40" fill="none" xmlns="http://www.w3.org/2000/svg">
<rect width="39" height="40" rx="19.5" fill="#DCE2ED"/>
<path d="M14.0119 25.9752C13.9256 25.949 13.8242 25.8776 13.7567 25.7913L13.7567 25.7951C13.6591 25.6712 13.644 25.6224 13.644 25.2019L18.8431 20.0028L13.644 14.7962L13.644 14.5748C13.644 14.3833 13.6591 14.3345 13.7567 14.2144C13.8242 14.1281 13.9256 14.0567 14.0082 14.0305C14.0908 14.0042 14.2184 14.0004 14.301 14.0117C14.4399 14.038 14.6839 14.2707 17.259 16.8421C18.8056 18.3849 20.0932 19.6913 20.1232 19.7476C20.1532 19.8076 20.1758 19.9203 20.1758 20.0028C20.1758 20.0854 20.1532 20.198 20.1232 20.2544C20.0932 20.3144 18.8056 21.6208 17.259 23.1636C14.6839 25.735 14.4399 25.9677 14.301 25.994C14.2184 26.0053 14.0908 26.0015 14.0119 25.9752Z" fill="#404650"/>
<path d="M19.0571 25.9114C19.0121 25.8814 18.9407 25.7988 18.8995 25.735C18.8544 25.6599 18.8244 25.5436 18.8244 25.4535C18.8244 25.3634 18.8431 25.2545 18.8657 25.2095C18.8882 25.1607 20.0594 23.9707 24.0235 19.9991L21.4671 17.439C20.0594 16.0275 18.8882 14.8375 18.8657 14.7925C18.8431 14.7437 18.8244 14.6386 18.8244 14.556C18.8244 14.4734 18.8507 14.3533 18.8807 14.2932C18.9107 14.2332 18.982 14.1468 19.0383 14.1055C19.0984 14.0642 19.1923 14.0192 19.2561 14.0079C19.3161 13.9967 19.4287 13.9967 19.5001 14.0117C19.6127 14.0305 20.0556 14.4584 22.4393 16.8383C23.9859 18.3812 25.2735 19.6875 25.3035 19.7476C25.3336 19.8039 25.3561 19.939 25.3561 20.2431L22.5107 23.0885C20.3597 25.2395 19.639 25.9415 19.5376 25.9715C19.4663 25.994 19.3462 26.0053 19.2748 25.9903C19.2035 25.979 19.1059 25.9415 19.0571 25.9114Z" fill="#404650"/>
</svg>
