<svg width="39" height="40" viewBox="0 0 39 40" fill="none" xmlns="http://www.w3.org/2000/svg">
<rect width="39" height="40" rx="19.5" fill="#DCE2ED"/>
<path d="M28.043 12.5137L28.457 12.7168C28.6828 12.8222 29.0367 13.0781 29.2324 13.2813C29.4356 13.4769 29.6914 13.8311 30 14.4707V25.5352L29.7969 25.9492C29.6915 26.175 29.4356 26.5289 29.2324 26.7246C29.0367 26.9278 28.6827 27.1836 28.043 27.4922H10.957L10.543 27.2891C10.3172 27.1837 9.96325 26.9278 9.76758 26.7246C9.56438 26.5289 9.30853 26.1748 9 25.5352V14.4707L9.20312 14.0567C9.30856 13.8309 9.54989 13.4928 9.73047 13.3047C9.91099 13.1167 10.2264 12.8831 10.4297 12.7852C10.6404 12.6798 10.9118 12.5741 11.0322 12.544C11.1602 12.5139 15.0366 12.4986 28.043 12.5137ZM9.93359 17.5195L9.95605 21.418L9.97852 25.3252C10.3472 25.9196 10.5734 26.1451 10.8066 26.2881L11.168 26.5137H27.832C28.4267 26.1449 28.6526 25.9192 28.7881 25.6934L29.0215 25.3252L29.0596 17.5195H9.93359ZM27.832 13.4922C15.169 13.4772 11.3663 13.5005 11.2207 13.5381C11.0777 13.5682 10.829 13.6886 10.6709 13.794C10.5204 13.8994 10.3023 14.1404 10.1895 14.336C10.0014 14.6669 9.97892 14.7798 9.96387 15.5772L9.94043 16.4658H29.0596C29.0219 14.7347 29.0064 14.6663 28.7881 14.3125C28.6526 14.0868 28.4266 13.8617 28.1934 13.7188L27.832 13.4922Z" fill="#404650"/>
<path d="M11.9731 24.03C11.9731 23.9246 12.0409 23.7741 12.1237 23.6913C12.2667 23.5483 12.3721 23.5408 14.4721 23.5408C15.6839 23.5408 16.7151 23.5709 16.7602 23.601C16.8054 23.6311 16.8807 23.7289 16.9334 23.8193C16.9785 23.9171 17.0162 24.0225 17.0162 24.0677C17.0162 24.1128 16.9334 24.2257 16.6473 24.5193H14.4796C12.4097 24.5193 12.3043 24.5117 12.1463 24.3687C12.0484 24.2859 11.9731 24.1354 11.9731 24.03Z" fill="#404650"/>
</svg>
