<svg width="13" height="11" viewBox="0 0 13 11" fill="none" xmlns="http://www.w3.org/2000/svg">
<path d="M4.1928 5.73368L0.325062 1.21582C0.11174 1.57898 0 1.99546 0 2.41703V8.27323C0 8.72781 0.129517 9.17223 0.373314 9.5557L4.1928 5.73368Z" fill="#848892"/>
<path d="M5.37115 5.53322C5.90445 6.15795 6.84409 6.22905 7.46628 5.69575C7.52469 5.64496 7.57802 5.59163 7.62881 5.53322L11.9765 0.454118C11.5753 0.174767 11.0978 0.022394 10.6077 0.0249336H2.39225C1.90212 0.0249336 1.42469 0.174767 1.02344 0.454118L5.37115 5.53322Z" fill="#848892"/>
<path d="M12.6774 1.21582L8.80713 5.73622L12.6266 9.5557C12.8704 9.17223 12.9999 8.72781 12.9999 8.27323V2.41703C13.0025 1.99546 12.8907 1.57898 12.6774 1.21582Z" fill="#848892"/>
<path d="M8.11634 6.49316C7.18178 7.27535 5.82058 7.27535 4.88603 6.49316L1.09448 10.2822C1.48049 10.5336 1.92999 10.6656 2.39219 10.6656H10.6102C11.0698 10.6656 11.5219 10.5336 11.9079 10.2822L8.11634 6.49316Z" fill="#848892"/>
</svg>
