<svg width="12" height="14" viewBox="0 0 12 14" fill="none" xmlns="http://www.w3.org/2000/svg">
<path fill-rule="evenodd" clip-rule="evenodd" d="M6.18153 13.7556C8.57864 12.4332 11.2 8.47466 11.2 5.61866C11.2 2.52931 8.6928 0.0249023 5.6 0.0249023C2.5072 0.0249023 0 2.52931 0 5.61866C0 8.47466 2.62136 12.4332 5.01847 13.7556C5.38154 13.9559 5.81846 13.9559 6.18153 13.7556ZM5.6 7.8649C6.85258 7.8649 7.868 6.84948 7.868 5.5969C7.868 4.34432 6.85258 3.3289 5.6 3.3289C4.34742 3.3289 3.332 4.34432 3.332 5.5969C3.332 6.84948 4.34742 7.8649 5.6 7.8649Z" fill="#848892"/>
</svg>
