<svg width="23" height="18" viewBox="0 0 23 18" fill="none" xmlns="http://www.w3.org/2000/svg">
<path d="M19.0017 0.648939C19.4611 0.486068 20.1185 0.271374 20.4671 0.175132C20.9344 0.0418735 21.2196 0.00485734 21.5364 0.0344703C21.7899 0.0492768 22.0592 0.123309 22.1701 0.204745C22.281 0.278777 22.4157 0.471261 22.479 0.634133C22.5662 0.871036 22.5662 1.08573 22.487 1.81125C22.4394 2.29986 22.2889 3.39554 22.1622 4.25432C22.0355 5.11309 21.7503 6.83805 21.5364 8.104C21.3146 9.36995 20.9582 11.3466 20.7364 12.5089C20.5225 13.6712 20.2849 14.8706 20.2215 15.1741C20.1502 15.4776 19.9997 15.9292 19.8888 16.1661C19.77 16.403 19.5561 16.6992 19.4215 16.8102C19.1918 17.0027 19.1046 17.0249 18.6294 17.0249C18.2333 17.0249 17.9878 16.9805 17.6947 16.8546C17.4808 16.7584 15.857 15.7664 14.0906 14.6559C12.3241 13.5454 10.7478 12.5163 10.5736 12.3683C10.4072 12.2202 10.2171 11.9907 10.1617 11.8574C10.0983 11.7242 10.0745 11.5317 10.0983 11.4132C10.13 11.3022 10.2646 11.0653 10.3993 10.8876C10.534 10.7099 11.6588 9.67349 12.9024 8.58521C14.146 7.49693 15.556 6.24579 16.0312 5.80159C16.5144 5.3574 16.9738 4.9058 17.0451 4.78735C17.1481 4.63928 17.156 4.55045 17.1006 4.4394C17.0478 4.34069 16.9422 4.29133 16.7837 4.29133C16.6016 4.29133 15.4609 4.97243 12.0152 7.11197C9.52006 8.66665 7.33382 9.99923 7.15956 10.0659C6.98529 10.1399 6.64468 10.2361 6.40705 10.2806C6.0506 10.3546 5.83673 10.3472 5.23472 10.2583C4.83867 10.1917 3.92774 9.97702 3.22275 9.77713C2.50985 9.57724 1.71774 9.33294 1.45634 9.2441C1.19494 9.14786 0.886019 8.99979 0.767202 8.90355C0.608779 8.7851 0.54541 8.66665 0.54541 8.48897C0.54541 8.31869 0.608779 8.19284 0.798887 8.02256C0.941467 7.88931 1.20286 7.71903 1.37713 7.6376C1.55139 7.55616 3.70594 6.67517 6.16942 5.67574C8.63289 4.6763 11.4449 3.54361 12.4271 3.15864C13.4093 2.77367 15.0965 2.11478 16.1897 1.7002C17.2748 1.27821 18.5422 0.804407 19.0017 0.648939Z" fill="#1E99F0"/>
</svg>
