<svg width="20" height="20" viewBox="0 0 20 20" fill="none" xmlns="http://www.w3.org/2000/svg">
<path fill-rule="evenodd" clip-rule="evenodd" d="M10.0427 0.0249023C4.80547 0.0249023 0.54541 4.28616 0.54541 9.52482C0.54541 11.6024 1.21541 13.5292 2.35437 15.0931L1.17066 18.6227L4.82217 17.4556C6.32402 18.4498 8.11629 19.0249 10.0482 19.0249C15.2853 19.0249 19.5454 14.7635 19.5454 9.52499C19.5454 4.28632 15.2853 0.0250594 10.0482 0.0250594L10.0427 0.0249023ZM7.3905 4.85044C7.20629 4.40926 7.06668 4.39256 6.78761 4.38121C6.6926 4.37569 6.5867 4.37018 6.46931 4.37018C6.10625 4.37018 5.72666 4.47626 5.4977 4.71079C5.21863 4.99561 4.52624 5.66014 4.52624 7.02292C4.52624 8.3857 5.52007 9.70372 5.65401 9.88813C5.79363 10.0722 7.59155 12.9094 10.3832 14.0657C12.5662 14.9704 13.214 14.8866 13.7109 14.7805C14.4366 14.6241 15.3468 14.0878 15.5758 13.4401C15.8047 12.7921 15.8047 12.2392 15.7376 12.1219C15.6706 12.0047 15.4863 11.9378 15.2072 11.798C14.9281 11.6584 13.5712 10.9882 13.3144 10.8988C13.0631 10.8039 12.8231 10.8375 12.6334 11.1056C12.3653 11.4798 12.103 11.8597 11.8907 12.0885C11.7232 12.2673 11.4495 12.2896 11.2207 12.1946C10.9136 12.0663 10.0538 11.7644 8.99289 10.8206C8.17208 10.0891 7.61379 9.17885 7.45196 8.90522C7.28997 8.62607 7.43524 8.46388 7.5635 8.31319C7.70312 8.13997 7.83707 8.01718 7.97668 7.85515C8.1163 7.69327 8.19446 7.60942 8.2838 7.41949C8.37882 7.23523 8.31168 7.0453 8.24471 6.90565C8.17774 6.766 7.61945 5.40321 7.3905 4.85044Z" fill="#0FC020"/>
</svg>
