<svg xmlns="http://www.w3.org/2000/svg" width="28" height="25" fill="none" viewBox="0 0 28 25">
  <path fill="#D91924" d="M12.87 4.83c.14-.008.36.054.508.124.21.105.368.341.753 1.155.262.57 1.112 2.373 1.874 4.01.761 1.637 1.47 3.23 1.567 3.546.105.315.254.946.332 1.401.097.604.123 1.12.088 1.882a9.9 9.9 0 0 1-.271 1.927 10.8 10.8 0 0 1-.71 1.839 10.384 10.384 0 0 1-1.032 1.663c-.307.385-.797.901-1.078 1.155-.28.245-.69.517-.91.596-.254.096-.797.166-1.532.192-.692.035-1.428.01-1.883-.052a11.424 11.424 0 0 1-1.532-.368 13.307 13.307 0 0 1-1.488-.63 12.63 12.63 0 0 1-1.27-.805 12.486 12.486 0 0 1-1.095-.964c-.289-.29-.753-.867-1.024-1.27-.315-.473-1.165-2.171-2.303-4.596C.867 13.518.036 11.671.01 11.52a1.006 1.006 0 0 1 .078-.525c.079-.149.5-.578.955-.954a22.635 22.635 0 0 1 1.873-1.384c.578-.385 1.698-1.015 2.495-1.418.797-.394 1.874-.893 2.408-1.095a34.72 34.72 0 0 1 1.97-.673 17.6 17.6 0 0 1 1.927-.474c.508-.088 1.024-.166 1.155-.166Zm1.19 10.848a.914.914 0 0 0-.393.132c-.105.07-.324.394-.49.718a4.376 4.376 0 0 1-.718 1.024 4.503 4.503 0 0 1-.998.692c-.464.228-.7.28-1.313.307-.508.026-.902-.009-1.252-.105-.324-.087-.57-.114-.7-.07-.106.044-.281.193-.395.333-.105.14-.201.359-.193.499 0 .14.097.341.237.49.14.131.42.306.638.367.246.079.807.123 1.49.123.901 0 1.19-.035 1.663-.193a6.08 6.08 0 0 0 1.095-.533c.288-.184.717-.543.962-.788.237-.245.587-.7.77-.998.185-.307.377-.701.438-.885.088-.28.079-.376-.044-.613-.087-.157-.253-.333-.376-.394a1.293 1.293 0 0 0-.42-.106ZM21.04.673c.822.026 1.864.078 2.32.13.455.044 1.243.167 1.75.263.508.097 1.156.246 1.445.333.289.088.674.227.85.306a.924.924 0 0 1 .463.403c.114.22.131.92.131 4.597 0 2.67-.034 4.596-.096 5.008a11.72 11.72 0 0 1-.315 1.427 9.716 9.716 0 0 1-.57 1.445c-.192.385-.551.988-.805 1.347a10.3 10.3 0 0 1-1.103 1.27c-.359.35-.893.789-1.182.981-.29.202-.814.508-1.164.683a10.86 10.86 0 0 1-1.314.534c-.367.123-.823.219-1.007.219a3.93 3.93 0 0 1-.726-.105c-.333-.097-.386-.14-.342-.29.026-.097.106-.569.185-1.05.096-.63.122-1.208.095-2.057-.026-.648-.105-1.428-.166-1.726-.06-.297-.079-.576-.044-.612.044-.035.473-.07.963-.061.78 0 .964.035 1.42.245.288.131.717.403.962.604.341.289.508.367.753.367a.714.714 0 0 0 .552-.218c.122-.123.245-.306.271-.411.026-.114-.018-.342-.088-.508-.07-.167-.341-.465-.587-.666a6.371 6.371 0 0 0-.989-.604 6.46 6.46 0 0 0-1.138-.394c-.455-.114-.814-.131-1.4-.096-.43.035-.92.07-1.357.096L17.08 8.456l.578-.114c.315-.062.736-.201.929-.315.192-.114.446-.316.568-.447.158-.166.219-.332.219-.577 0-.254-.061-.395-.245-.578-.166-.167-.333-.246-.534-.246-.175 0-.43.097-.665.263-.272.184-.482.263-.736.263-.245 0-.481-.079-.77-.263-.377-.245-.456-.36-1.051-1.602-.35-.744-.71-1.41-.806-1.489-.114-.113-.359-.157-1.716-.192v-.395c0-.218.062-.516.132-.656a.94.94 0 0 1 .456-.403c.183-.079.568-.21.857-.297.289-.096.823-.219 1.182-.298.36-.07.955-.175 1.314-.227A31.27 31.27 0 0 1 18.5.707c.578-.044 1.716-.052 2.54-.034ZM6.731 13.06a2.883 2.883 0 0 0-.568.079 4.382 4.382 0 0 0-.57.193 3.06 3.06 0 0 0-.648.428 3.5 3.5 0 0 0-.586.736c-.14.236-.254.526-.254.64 0 .105.053.297.123.428.06.14.219.298.35.35a1.1 1.1 0 0 0 .376.114c.088 0 .29-.078.439-.175.157-.096.314-.263.34-.377a1.3 1.3 0 0 1 .245-.393c.097-.105.298-.237.447-.29.175-.052.403-.052.657 0 .298.062.464.053.674-.043.157-.07.324-.202.377-.298a1.37 1.37 0 0 0 .087-.464 1.09 1.09 0 0 0-.131-.481c-.079-.114-.316-.246-.596-.325-.245-.07-.595-.13-.762-.122Zm6.392-2.872c-.359-.008-.752.01-.875.053a3.623 3.623 0 0 0-.57.254c-.192.096-.49.333-.674.516-.175.184-.394.49-.5.683-.104.193-.183.456-.183.596 0 .131.105.35.237.508.184.192.324.262.551.271.167 0 .394-.053.508-.114a.822.822 0 0 0 .28-.341c.044-.123.211-.334.36-.482.253-.254.298-.263.98-.245.56.017.762-.009.91-.131a.866.866 0 0 0 .28-.412.784.784 0 0 0-.043-.543c-.07-.157-.227-.36-.367-.438-.158-.1-.456-.157-.894-.175Zm9.684-4.01c-.105-.017-.324.018-.482.088h.009c-.158.07-.333.21-.377.306-.052.096-.087.29-.087.439 0 .175.097.376.29.594.165.175.506.42.769.543.367.167.622.21 1.13.219.534 0 .744-.044 1.138-.236.263-.132.56-.306.665-.394.097-.087.228-.245.28-.35.062-.114.105-.298.105-.42 0-.123-.043-.299-.087-.395-.053-.096-.228-.236-.394-.306-.167-.07-.394-.105-.508-.079a1.81 1.81 0 0 0-.455.263c-.14.114-.42.228-.613.263-.297.043-.412.008-.77-.22-.228-.148-.5-.288-.613-.315Z"/>
</svg>
