<svg xmlns="http://www.w3.org/2000/svg" width="16" height="23" fill="none" viewBox="0 0 16 23">
  <path fill="#D91924" d="M6.273.25a7.42 7.42 0 0 1 .779-.216c.18-.028.663-.043 1.08-.028.455.021.93.086 1.19.165.238.073.663.253.937.397.281.144.685.418.909.605.216.188.519.49.663.67.151.181.396.57.548.866.151.295.295.612.367.865h-1.405c-.973 0-1.464.029-1.593.086a.695.695 0 0 0-.289.289.955.955 0 0 0-.1.346c0 .079.043.23.093.331a.621.621 0 0 0 .288.288c.145.08.563.101 3.223.101v1.442h-1.514c-1.146 0-1.564.022-1.709.101a.621.621 0 0 0-.288.288.93.93 0 0 0-.094.332c0 .08.044.23.094.331a.621.621 0 0 0 .288.289c.145.08.563.1 3.223.1V9.34h-1.514c-1.146 0-1.564.022-1.709.101a.621.621 0 0 0-.288.289.93.93 0 0 0-.094.331c0 .08.044.23.094.332a.621.621 0 0 0 .288.288c.145.08.548.101 3.006.101l-.043.166c-.029.086-.18.418-.339.735-.223.433-.447.735-.908 1.197-.52.519-.728.67-1.305.951-.41.202-.908.382-1.24.447-.31.058-.756.108-.994.108s-.685-.05-.988-.108c-.339-.065-.836-.245-1.247-.447-.577-.281-.786-.432-1.305-.951-.46-.462-.684-.764-.908-1.197-.158-.317-.31-.649-.382-.901h1.406c1.052 0 1.456-.022 1.607-.1a.695.695 0 0 0 .289-.29c.043-.1.086-.252.086-.33 0-.08-.043-.231-.086-.332a.695.695 0 0 0-.289-.29c-.151-.079-.57-.1-3.23-.1V7.898h1.515c1.146 0 1.564-.022 1.715-.101a.695.695 0 0 0 .289-.289c.043-.1.086-.252.086-.331 0-.08-.043-.23-.086-.332a.695.695 0 0 0-.289-.288c-.151-.08-.57-.101-3.23-.101V5.015h1.515c1.06 0 1.571-.028 1.7-.086a.695.695 0 0 0 .29-.288.955.955 0 0 0 .1-.346.901.901 0 0 0-.1-.34.621.621 0 0 0-.29-.288c-.129-.064-.62-.093-2.998-.093l.043-.159c.03-.094.18-.425.346-.742.195-.382.469-.764.808-1.118.295-.31.735-.67 1.03-.843.282-.173.714-.375.96-.461Z"/>
  <path fill="#D91924" d="M.074 5.42a.701.701 0 0 1 .274-.304c.1-.05.252-.093.346-.1a.98.98 0 0 1 .36.1c.109.05.231.188.282.303.064.144.093.937.115 2.588.021 2.177.036 2.429.18 2.955.087.317.267.808.397 1.081.13.282.382.714.555.974.18.26.511.663.756.9.238.246.642.577.901.758.26.172.7.425.974.554.28.13.764.303 1.08.39.47.13.772.158 1.623.158.85 0 1.153-.028 1.622-.158.317-.087.807-.26 1.08-.39.282-.13.714-.381.974-.554.26-.174.663-.512.9-.75a8.71 8.71 0 0 0 .758-.908 8.66 8.66 0 0 0 .555-.974c.13-.273.31-.764.396-1.08.144-.527.159-.78.18-2.956.022-1.65.05-2.444.116-2.588a.653.653 0 0 1 .288-.303c.108-.057.26-.1.339-.1.08 0 .23.043.346.1a.69.69 0 0 1 .288.303c.072.166.087.75.065 2.66-.021 2.35-.036 2.48-.209 3.135-.1.375-.295.945-.425 1.262-.13.317-.433.872-.67 1.225-.238.354-.693.916-1.01 1.233a9.506 9.506 0 0 1-1.232 1.016 9.04 9.04 0 0 1-1.226.663c-.317.13-.886.325-1.261.426-.598.158-.83.18-1.874.18-1.046 0-1.276-.022-1.874-.18-.375-.101-.93-.281-1.226-.411a9.204 9.204 0 0 1-1.225-.663 9.664 9.664 0 0 1-1.269-1.031c-.324-.324-.778-.88-1.016-1.233a9.033 9.033 0 0 1-.663-1.225c-.13-.317-.325-.887-.426-1.262C.045 10.56.031 10.43.01 8.08-.011 6.17.003 5.586.075 5.42Zm5.68 14.733.015-.836.007-.844.295.058c.166.029.505.08.764.115.26.029.743.058 1.082.058.338 0 .821-.029 1.08-.058.26-.036.606-.094 1.082-.187v1.694l1.752.021c1.593.015 1.766.03 1.99.159.136.08.316.26.396.396.122.202.151.375.151.865 0 .483-.029.663-.144.858a1.3 1.3 0 0 1-.397.397c-.252.151-.324.151-5.91.151-5.587 0-5.659 0-5.911-.151a1.3 1.3 0 0 1-.397-.397c-.115-.195-.144-.375-.144-.858 0-.49.03-.663.152-.865a1.3 1.3 0 0 1 .396-.396c.224-.13.397-.144 3.741-.18Z"/>
</svg>
