<svg width="39" height="40" viewBox="0 0 39 40" fill="none" xmlns="http://www.w3.org/2000/svg">
<rect width="39" height="40" rx="19.5" fill="#DCE2ED"/>
<path d="M21.368 13.0094C21.3736 12.8134 21.4128 12.7238 21.5585 12.5725L21.7433 12.3821H23.9726C25.8155 12.3821 26.258 12.3989 26.4876 12.4661C26.6389 12.5165 26.8685 12.6117 26.9918 12.6846C27.115 12.7574 27.3278 12.9422 27.4623 13.0878C27.6023 13.2391 27.7759 13.5023 28 13.9785V26.0213L27.8544 26.3294C27.7759 26.4974 27.6023 26.7607 27.4623 26.9119C27.3278 27.0575 27.115 27.2424 26.9918 27.3152C26.8685 27.388 26.6445 27.4832 26.4876 27.5336C26.258 27.6009 25.8155 27.6177 21.7545 27.6177L21.5585 27.4216C21.396 27.2592 21.3624 27.1864 21.3624 26.9903C21.3624 26.8503 21.4016 26.6934 21.4576 26.615C21.5137 26.5366 21.6425 26.4414 21.7377 26.4022C21.8777 26.3462 22.4211 26.3294 24.0343 26.3294C26.0507 26.3294 26.1628 26.3238 26.3308 26.2173C26.4316 26.1557 26.5661 26.0213 26.6277 25.9261C26.7397 25.7468 26.7397 25.6404 26.7397 19.9999C26.7397 14.3593 26.7397 14.2529 26.6277 14.0737C26.5661 13.9785 26.4316 13.844 26.3308 13.7824C26.1628 13.676 26.0507 13.6704 24.0343 13.6704C22.4211 13.6704 21.8777 13.6536 21.7377 13.5976C21.6425 13.5584 21.5137 13.4631 21.4576 13.3847C21.396 13.3007 21.3624 13.1607 21.368 13.0094Z" fill="#404650"/>
<path d="M16.7302 16.6041C16.7414 15.2892 16.7414 15.2836 16.8758 15.1772C16.9486 15.1212 17.0438 15.0708 17.083 15.0708C17.1278 15.0708 17.2791 15.166 17.4303 15.2837C17.5759 15.4013 18.4273 16.1126 19.318 16.8632C20.2086 17.6138 21.368 18.5828 21.8834 19.0141C22.3987 19.451 22.8356 19.8487 22.8468 19.8991C22.8636 19.9551 22.8636 20.0448 22.8468 20.0952C22.8356 20.1512 22.3987 20.5489 21.8834 20.9858C21.368 21.4171 20.1357 22.4477 19.1499 23.2767C18.1641 24.1001 17.3015 24.8171 17.2287 24.8675C17.1222 24.9403 17.0774 24.9459 16.9598 24.8843C16.887 24.8507 16.803 24.7555 16.7694 24.6771C16.7357 24.5986 16.7133 23.9937 16.7133 22.0724H14.0919C11.5769 22.0724 11.4705 22.0668 11.2913 21.9604C11.196 21.8988 11.084 21.7868 11.056 21.7084C11.0224 21.6243 11 20.913 11 20C11 19.0869 11.0224 18.3756 11.056 18.2916C11.084 18.2131 11.196 18.1011 11.2913 18.0395C11.4705 17.9331 11.5769 17.9275 16.7133 17.9275L16.7301 16.6056L16.7302 16.6041Z" fill="#CB0C16"/>
</svg>
