<svg xmlns="http://www.w3.org/2000/svg" width="22" height="23" fill="none" viewBox="0 0 22 23">
  <path fill="#D91924" d="M7.806 1.473C8.438 1.164 9.373.712 9.89.46c.518-.244.934-.453.934-.46l.899.417c.496.237 1.48.711 2.192 1.056.712.345 2.02.97 2.91 1.402.842.4 2.189 1.056 4.47 2.168l.418.204v1.365H.007L0 5.24l1.639-.798c.898-.439 2.4-1.157 3.328-1.603.927-.446 2.206-1.064 2.839-1.366ZM.942 9.631V7.978h19.837v1.653h-1.725v7.116h-3.45V9.63h-3.019v7.116h-3.45V9.63H6.117v7.116h-3.45V9.63H.942Zm.288 10.206v-1.796h19.262v1.796H1.229ZM.007 23v-1.797h21.706V23H.007Z"/>
</svg>
