<svg width="144" height="36" viewBox="0 0 144 36" fill="none" xmlns="http://www.w3.org/2000/svg">
<path d="M72.5216 0.025425C73.8005 0.0510021 74.423 0.10264 74.9943 0.230503C75.4206 0.324299 76.0693 0.502728 76.4445 0.622105C76.8196 0.750019 77.5097 1.04063 77.9786 1.27933C78.4475 1.50951 79.1383 1.91858 79.505 2.19144C79.8802 2.45578 80.2212 2.73748 80.2638 2.8057C80.3234 2.89952 80.1446 3.21454 79.5138 4.08402C79.0533 4.71501 78.5332 5.44021 78.0216 6.13089L77.8341 5.96878C77.7233 5.88351 77.3478 5.62772 76.9982 5.3975C76.6486 5.17583 76.052 4.84341 75.6769 4.67289C75.3017 4.49382 74.653 4.24636 74.2267 4.12699C73.6728 3.95659 73.1869 3.88863 72.4796 3.85453C71.8913 3.82042 71.3191 3.84562 71.0548 3.90531C70.8075 3.9565 70.4413 4.0762 70.2452 4.16996C70.0408 4.25516 69.7339 4.47632 69.5548 4.65531C69.3757 4.83437 69.1706 5.11634 69.0939 5.27835C69.0087 5.44888 68.9491 5.78965 68.9406 6.08793C68.9406 6.49722 68.9912 6.68551 69.1788 7.00101C69.3408 7.29086 69.546 7.48701 69.8615 7.66605C70.1002 7.81096 70.5178 7.99831 70.7736 8.10062C71.0294 8.20294 71.9333 8.45066 72.7775 8.65531C73.6215 8.85993 74.7384 9.14972 75.2501 9.28617C75.7703 9.43112 76.5722 9.70404 77.0411 9.89164C77.51 10.0792 78.1663 10.4028 78.4904 10.6075C78.8142 10.812 79.2747 11.1614 79.505 11.3916C79.7352 11.6133 80.0507 11.9888 80.2042 12.2276C80.3577 12.4578 80.5714 12.8847 80.6652 13.1661C80.7589 13.4476 80.8784 13.9844 80.921 14.3594C80.9778 14.8141 80.9778 15.2972 80.921 15.8086C80.8784 16.2262 80.7761 16.7889 80.6993 17.045C80.6226 17.3007 80.4006 17.8211 80.213 18.1963C79.9657 18.6824 79.6754 19.0659 79.215 19.5264C78.8568 19.8845 78.3112 20.3196 77.9786 20.5157C77.6546 20.7032 77.1178 20.9679 76.7853 21.0957C76.4613 21.2236 75.8474 21.4111 75.421 21.5049C74.7559 21.6669 74.3977 21.6922 72.6925 21.6836C70.9787 21.6836 70.6204 21.6581 69.8361 21.4961C69.3415 21.3853 68.557 21.1721 68.088 21.0186C67.619 20.8566 66.8683 20.5499 66.4249 20.3282C65.9815 20.1064 65.2905 19.6977 64.8898 19.4248C64.489 19.152 63.995 18.7843 63.4152 18.2813L65.9991 15.169L66.7921 15.7666C67.2185 16.0906 67.9003 16.5252 68.3009 16.7383C68.7017 16.943 69.3667 17.2333 69.7931 17.3868C70.2194 17.5317 70.8845 17.7101 71.2853 17.7784C71.686 17.8466 72.4108 17.8985 72.9054 17.8985C73.4253 17.8985 74.005 17.8472 74.295 17.7705C74.5593 17.7024 74.9429 17.5652 75.1476 17.4629C75.3437 17.3606 75.6173 17.1817 75.7452 17.0537C75.8817 16.9343 76.0695 16.6787 76.1632 16.4912C76.2569 16.3037 76.3505 15.9798 76.3761 15.7666C76.4017 15.5535 76.3755 15.2203 76.3243 15.0157C76.2646 14.7772 76.1116 14.5386 75.8732 14.3086C75.6515 14.104 75.2586 13.8652 74.8663 13.7032C74.5165 13.5582 73.1952 13.1827 71.9249 12.8672C70.6634 12.5433 69.2824 12.1683 68.8556 12.0147C68.4293 11.8612 67.7642 11.5709 67.3634 11.3662C66.9626 11.1616 66.4249 10.8206 66.1691 10.6075C65.9133 10.3943 65.5723 10.0621 65.4103 9.85746C65.2569 9.66145 65.0184 9.27775 64.882 9.00492C64.7455 8.74058 64.5742 8.27921 64.506 7.98929C64.4378 7.68212 64.379 7.04302 64.379 6.51468C64.379 5.8754 64.4294 5.3723 64.5402 4.93753C64.6254 4.58803 64.8132 4.06761 64.9581 3.78617C65.0945 3.50485 65.3934 3.03606 65.6066 2.74613C65.8197 2.44769 66.2204 2.02056 66.4933 1.79886C66.7576 1.57721 67.2264 1.25356 67.5333 1.08304C67.8401 0.912603 68.3431 0.674168 68.6671 0.554722C68.9826 0.426818 69.5975 0.25594 70.0323 0.162144C70.7057 0.0172719 71.0554 -0.000146508 72.5216 0.025425ZM100.788 4.42582H94.2228V21.3946H89.7032V4.42582H83.1378V0.333042H100.788V4.42582ZM114.21 0.375034L117.604 8.68851C119.471 13.2589 121.398 17.9923 122.788 21.3946L117.459 21.3516L109.734 18.3672L109.741 15.9619C109.741 14.633 109.759 13.5506 109.784 13.5489C109.81 13.5489 111.046 14.0096 112.538 14.5723C114.012 15.1313 115.234 15.5815 115.267 15.5791C115.275 15.5621 114.474 13.5494 113.477 11.0938C112.481 8.65211 111.639 6.67725 111.609 6.70218C111.575 6.74482 110.22 10.0623 105.607 21.3946H100.532L100.669 21.0782C100.74 20.8935 102.607 16.3173 104.814 10.9063C107.014 5.49169 108.889 0.89511 108.983 0.690464L109.136 0.333042L114.21 0.375034ZM136.312 0.375034L137.121 0.596714C137.565 0.724613 138.196 0.946873 138.528 1.09183C138.852 1.24532 139.373 1.52683 139.68 1.73148C139.978 1.9362 140.499 2.38757 140.831 2.72855C141.155 3.07793 141.547 3.57223 141.7 3.82816C141.854 4.08397 142.076 4.54534 142.204 4.84378C142.324 5.1508 142.477 5.65392 142.545 5.95218C142.605 6.25928 142.656 6.92394 142.664 7.42679C142.664 7.93841 142.604 8.61234 142.527 8.96195C142.459 9.30304 142.289 9.84892 142.152 10.1729C142.016 10.5055 141.709 11.0423 141.479 11.3662C141.248 11.6988 140.857 12.1597 140.609 12.3985C140.354 12.6372 139.918 12.987 139.637 13.1661C139.347 13.3536 138.861 13.6175 138.546 13.7539C138.128 13.9415 137.991 14.0439 138.026 14.1377C138.051 14.2149 139.075 15.6903 140.294 17.4209C141.513 19.1603 142.648 20.7634 143.091 21.3858L137.932 21.3946L133.156 14.5723L129.788 14.5645V21.3858H125.27V10.8545L125.277 0.315464L136.312 0.375034ZM129.779 4.51078V10.3946L129.825 10.3936C135.399 10.3428 135.46 10.3428 135.987 10.1387C136.286 10.0194 136.703 9.78898 136.925 9.62699C137.138 9.46498 137.42 9.17493 137.548 8.98734C137.676 8.79974 137.829 8.47584 137.889 8.26273C137.957 8.04962 138 7.666 138 7.41019C138 7.15442 137.94 6.75345 137.863 6.51468C137.778 6.27594 137.548 5.9009 137.343 5.66214C137.138 5.43192 136.78 5.13282 136.55 5.00492C136.32 4.88555 135.902 4.7242 135.62 4.6475C135.211 4.53672 134.58 4.51078 132.441 4.51078H129.779Z" fill="#C2020D"/>
<path d="M70.4746 31.0547C71.1397 31.0717 71.3024 31.115 71.7031 31.3281C71.9589 31.4731 72.2912 31.7373 72.4531 31.9248C72.6066 32.1124 72.8031 32.4622 72.8799 32.6924C72.9736 32.9822 72.9992 33.3066 72.9736 33.7158C72.948 34.1505 72.8797 34.415 72.7178 34.6963C72.5984 34.9094 72.3335 35.2243 72.1289 35.4033C71.9244 35.5823 71.5669 35.7874 71.3281 35.8643C71.0979 35.941 70.671 36.001 70.3896 36.001C70.1083 35.9924 69.7247 35.9496 69.5371 35.8984C69.3495 35.8558 69.0166 35.6938 68.7949 35.5488C68.5648 35.4039 68.2749 35.1142 68.1299 34.8926C67.9935 34.6624 67.8315 34.2954 67.7803 34.0566C67.7206 33.8264 67.7039 33.4593 67.7295 33.2461C67.7466 33.0331 67.8399 32.6926 67.9336 32.4795C68.0188 32.2664 68.2661 31.9332 68.4707 31.7285C68.6839 31.5239 69.051 31.2852 69.2812 31.1914C69.6137 31.0635 69.8695 31.0377 70.4746 31.0547ZM95.2031 31.0547C95.8681 31.0717 96.03 31.115 96.4307 31.3281C96.6865 31.4731 97.0196 31.7372 97.1816 31.9248C97.3351 32.1124 97.5307 32.4622 97.6074 32.6924C97.7012 32.9823 97.7268 33.3066 97.7012 33.7158C97.6756 34.159 97.6073 34.415 97.4453 34.6963C97.3259 34.9093 97.1129 35.1817 96.9766 35.3096C96.8487 35.4289 96.5841 35.6171 96.3965 35.7109C96.2088 35.8132 95.8426 35.9242 95.5869 35.9668C95.3141 36.0094 94.9132 36.0094 94.6318 35.9668C94.359 35.9242 93.9918 35.8213 93.8213 35.7275C93.6424 35.6423 93.3871 35.4721 93.2422 35.3613C93.0972 35.242 92.8754 34.9348 92.7305 34.6875C92.5088 34.2867 92.4831 34.1418 92.4746 33.5449C92.4746 33.0336 92.5171 32.7607 92.6533 32.4795C92.7471 32.2663 92.9946 31.9332 93.1992 31.7285C93.4123 31.524 93.7786 31.2853 94.0088 31.1914C94.3413 31.0635 94.5977 31.0376 95.2031 31.0547ZM141.334 31.0547C141.777 31.0718 142.255 31.1489 142.468 31.2256C142.664 31.3107 142.826 31.4298 142.826 31.498C142.826 31.5663 142.757 31.7631 142.681 31.9336C142.561 32.1721 142.493 32.2233 142.356 32.1807C142.262 32.1465 141.998 32.0701 141.76 32.002C141.513 31.9252 141.18 31.8907 140.976 31.9248C140.771 31.9504 140.532 32.044 140.438 32.1377C140.345 32.2315 140.268 32.3857 140.268 32.4795C140.268 32.5732 140.353 32.7004 140.464 32.7686C140.566 32.8368 140.975 32.9739 141.376 33.0762C141.777 33.1785 142.246 33.332 142.425 33.4258C142.595 33.5111 142.817 33.7157 142.911 33.8691C143.005 34.0141 143.082 34.2868 143.082 34.4658C143.082 34.6363 143.03 34.909 142.971 35.0625C142.911 35.2075 142.724 35.4382 142.562 35.5576C142.4 35.6854 142.118 35.83 141.931 35.8896C141.743 35.9493 141.3 35.9922 140.95 35.9922C140.601 35.9837 140.123 35.9237 139.884 35.8555C139.654 35.7872 139.363 35.6595 139.057 35.4209L139.458 34.6279L139.927 34.8496C140.293 35.0286 140.524 35.0801 141.001 35.0801C141.495 35.0801 141.649 35.0456 141.794 34.9092C141.896 34.8154 141.981 34.6786 141.981 34.6104C141.981 34.542 141.913 34.4145 141.828 34.3379C141.743 34.2526 141.317 34.091 140.891 33.9717C140.456 33.8523 139.995 33.7069 139.867 33.6387C139.731 33.5705 139.534 33.417 139.415 33.2891C139.253 33.1185 139.194 32.948 139.177 32.624C139.16 32.3171 139.202 32.0867 139.305 31.8906C139.39 31.7286 139.552 31.5237 139.671 31.4385C139.79 31.3532 140.038 31.2254 140.226 31.1572C140.464 31.0636 140.797 31.0376 141.334 31.0547ZM108.36 31.0381C108.787 31.0296 109.11 31.0809 109.426 31.2002C109.665 31.294 109.98 31.4729 110.381 31.7969L110.022 32.1553C109.682 32.5046 109.656 32.5133 109.511 32.377C109.425 32.3002 109.212 32.1717 109.042 32.1035C108.863 32.0269 108.556 31.9678 108.36 31.9678C108.139 31.9678 107.84 32.0437 107.609 32.1631C107.362 32.291 107.157 32.488 107.038 32.7012C106.902 32.9312 106.842 33.1698 106.842 33.502C106.842 33.826 106.902 34.0737 107.038 34.3125C107.166 34.5427 107.354 34.7217 107.609 34.8496C107.848 34.9689 108.147 35.037 108.402 35.0371C108.624 35.0371 108.897 35.0033 109.017 34.9521C109.221 34.8669 109.229 34.8325 109.229 33.417H110.253V35.4639L109.81 35.6768C109.562 35.7876 109.111 35.9153 108.804 35.958C108.497 36.0006 108.044 36.0006 107.806 35.958C107.558 35.9239 107.2 35.8135 107.013 35.7197C106.825 35.626 106.527 35.4039 106.356 35.2334C106.186 35.0543 105.964 34.7386 105.87 34.5254C105.751 34.2526 105.708 33.9538 105.708 33.502C105.708 32.9992 105.751 32.7692 105.913 32.4453C106.024 32.2151 106.314 31.857 106.544 31.6523C106.783 31.4393 107.14 31.217 107.354 31.1572C107.567 31.089 108.019 31.0381 108.36 31.0381ZM32.999 31.0381C33.357 31.0381 33.7917 31.0891 33.9795 31.1572C34.167 31.2254 34.4655 31.3877 34.6445 31.5156C34.8236 31.6521 34.9685 31.8055 34.96 31.8652C34.9597 31.9166 34.824 32.0873 34.6621 32.2236C34.5003 32.3599 34.3211 32.4793 34.2783 32.4795C34.2357 32.4795 34.176 32.4447 34.1504 32.3936C34.1246 32.3423 33.954 32.2314 33.7666 32.1377C33.579 32.0439 33.2635 31.9678 33.0674 31.9678C32.8458 31.9678 32.5475 32.0438 32.3174 32.1631C32.0446 32.308 31.8737 32.4789 31.7373 32.7432C31.618 32.9733 31.5499 33.2718 31.5498 33.502C31.5498 33.7322 31.6265 34.0393 31.7373 34.2695C31.8652 34.5253 32.0442 34.7129 32.2744 34.8408C32.496 34.9687 32.7602 35.0371 33.0244 35.0371C33.246 35.0371 33.5276 34.9945 33.6641 34.9434C33.792 34.8922 33.9799 34.7723 34.2783 34.4824L34.6025 34.7471C34.7729 34.8919 34.9261 35.0794 34.9434 35.1562C34.9519 35.233 34.8155 35.3951 34.6025 35.54C34.3981 35.6678 34.0996 35.8211 33.9375 35.8809C33.7755 35.932 33.391 35.9834 33.084 35.9834C32.7773 35.9919 32.3771 35.9498 32.1895 35.9072C32.0019 35.8561 31.6864 35.7021 31.4902 35.5742C31.2941 35.4463 31.0124 35.1817 30.876 34.9941C30.7396 34.8065 30.5601 34.4229 30.4834 34.1416C30.3726 33.7326 30.3647 33.5365 30.4414 33.1445C30.484 32.8717 30.5947 32.5045 30.6885 32.334C30.7738 32.1549 31.0296 31.8482 31.2598 31.6436C31.49 31.4474 31.831 31.2254 32.0186 31.1572C32.2061 31.0975 32.6495 31.0381 32.999 31.0381ZM44.0752 32.999H46.293V31.123H47.4014L47.3584 35.9414L46.293 35.9834V33.9375H44.0752V35.9834L42.9668 35.9746V31.123H44.0752V32.999ZM57.5479 32.5127C58.1874 33.2886 58.7335 33.9028 58.7676 33.8857C58.8016 33.8584 58.8271 33.2346 58.8271 31.123H59.9355L59.8936 35.9414L58.998 35.9834L56.6533 33.1104L56.5674 35.9414H55.459L55.4424 33.5283L55.416 31.123L56.3975 31.1143L57.5479 32.5127ZM131.059 31.9756H128.501V33.084H130.718V33.9375H128.501V35.0459H131.144L131.102 35.9414L127.393 35.9834V31.123H131.059V31.9756ZM10.7441 31.9678L9.25195 32.0098L9.20898 35.9746H8.10059V31.9678H6.56543V31.1143H10.7441V31.9678ZM22.3408 31.9678H19.8682V33.0762H22.085V33.9287H19.8682V35.0371H22.4258V35.9746L18.7168 35.9326L18.6914 33.5283L18.6738 31.1143H22.3408V31.9678ZM82.2852 35.0371H84.6719V35.9746H81.1758V31.1143H82.2852V35.0371ZM119.42 35.9326H118.311L118.285 33.5283L118.26 31.1143H119.462L119.42 35.9326ZM70.3721 31.9678C70.1929 31.9679 69.8864 32.0447 69.6904 32.1299C69.5029 32.2151 69.2645 32.4024 69.1621 32.5303C69.0683 32.6667 68.9567 32.948 68.9141 33.1611C68.8629 33.4084 68.872 33.6817 68.9316 33.9375C68.9829 34.1591 69.119 34.4402 69.2383 34.5596C69.3577 34.6875 69.5799 34.841 69.7334 34.9092C69.8785 34.9773 70.185 35.0371 70.415 35.0371C70.6708 35.0286 70.935 34.9601 71.1396 34.8408C71.3187 34.7385 71.5407 34.5424 71.626 34.3975C71.7198 34.261 71.8136 33.9709 71.8477 33.7578C71.8817 33.5276 71.8651 33.2378 71.7969 33.0332C71.7372 32.8457 71.5917 32.5818 71.4639 32.4453C71.3446 32.309 71.1147 32.1467 70.9697 32.0869C70.8162 32.0187 70.5426 31.9678 70.3721 31.9678ZM95.1006 31.9678C94.9215 31.9678 94.6141 32.0446 94.418 32.1299C94.2305 32.2153 93.9921 32.4025 93.8984 32.5303C93.8047 32.6666 93.6853 32.9306 93.6426 33.1182C93.5999 33.3143 93.5912 33.6221 93.6338 33.8438C93.668 34.0569 93.779 34.3211 93.8643 34.4404C93.9581 34.5598 94.1368 34.7305 94.2646 34.8242C94.401 34.9265 94.674 35.0112 94.9297 35.0283C95.2621 35.0539 95.4756 35.0116 95.7568 34.8838C95.97 34.7815 96.2258 34.5763 96.3281 34.4229C96.4304 34.2693 96.5421 33.971 96.5762 33.7578C96.6102 33.5191 96.5923 33.2463 96.5156 33.0332C96.4559 32.8457 96.3029 32.5818 96.1836 32.4453C96.0642 32.3089 95.8422 32.1463 95.6973 32.0781C95.5437 32.0185 95.271 31.9678 95.1006 31.9678ZM29.9297 0C30.6118 8.58152e-06 31.4046 0.0424141 31.8906 0.119141C32.334 0.195883 33.0847 0.383625 33.5537 0.537109C34.0227 0.699125 34.6704 0.955466 35.0029 1.12598C35.3355 1.288 35.9409 1.6542 36.3672 1.93555C36.7935 2.21694 37.4674 2.76304 37.8682 3.15527C38.2774 3.54753 38.8317 4.17859 39.1045 4.55371C39.3858 4.92887 39.7861 5.58519 40.0078 6.00293C40.2295 6.42075 40.5201 7.12027 40.665 7.53809C40.8014 7.95581 40.9801 8.6545 41.0654 9.07227C41.1763 9.6691 41.1933 10.1469 41.1592 11.2041C41.1251 12.2785 41.0739 12.7394 40.9033 13.3789C40.7925 13.8222 40.5795 14.4785 40.4346 14.8281C40.2896 15.1777 39.9741 15.7916 39.7354 16.1924C39.4966 16.5931 39.1385 17.1309 38.9424 17.3867C38.7462 17.6426 38.2945 18.1371 37.9365 18.4951C37.5784 18.8447 36.9894 19.3558 36.6143 19.6201C36.2476 19.8845 35.5568 20.3023 35.0879 20.541C34.6189 20.7798 33.8772 21.0872 33.4424 21.2236C33.0161 21.3685 32.3003 21.5392 31.874 21.6074C31.4391 21.6756 30.603 21.7354 30.0146 21.7354C29.4264 21.7353 28.5995 21.6756 28.1816 21.6074C27.7638 21.5307 27.0131 21.3339 26.5186 21.1719C26.0241 21.0013 25.2742 20.6943 24.8564 20.4727C24.4386 20.251 23.7217 19.7993 23.2783 19.4668C22.835 19.1343 22.1704 18.5377 21.8037 18.1455C21.4286 17.7533 20.925 17.1223 20.6777 16.7471C20.4305 16.3719 20.0807 15.7744 19.9102 15.4248C19.7311 15.0752 19.4753 14.4362 19.3389 14.0186C19.2024 13.6007 19.0409 12.9012 18.9727 12.4834C18.9044 12.0656 18.8447 11.3403 18.8447 10.8799C18.8448 10.428 18.8873 9.75449 18.9385 9.39648C18.9897 9.02983 19.1258 8.40753 19.2451 8.00684C19.3559 7.60614 19.6292 6.89867 19.8594 6.42969C20.0811 5.96075 20.4649 5.27 20.7207 4.90332C20.9764 4.52826 21.4959 3.89715 21.8711 3.50488C22.2462 3.1042 22.8775 2.54139 23.2783 2.23438C23.6791 1.93593 24.3701 1.50952 24.8135 1.2793C25.2569 1.04908 25.8708 0.767824 26.1777 0.648438C26.4847 0.537589 27.0986 0.358446 27.542 0.264648C27.9854 0.162325 28.4461 0.0678351 28.5654 0.0507812C28.6856 0.0252387 29.2993 0.00851928 29.9297 0ZM17.6504 4.42578H11.085V21.3936H6.56543V4.42578H0V0.333008H17.6504V4.42578ZM49.7285 0.333008C53.9656 0.333008 55.0067 0.350142 55.6377 0.460938C56.064 0.53768 56.653 0.674044 56.96 0.776367C57.267 0.870223 57.8386 1.1167 58.2393 1.32129C58.64 1.52595 59.2197 1.90172 59.5352 2.16602C59.859 2.42169 60.2848 2.85608 60.498 3.12891C60.7112 3.39324 61.0358 3.90528 61.2148 4.25488C61.4024 4.60449 61.633 5.18458 61.7354 5.53418C61.8461 5.91789 61.9307 6.54874 61.9648 7.11133C61.999 7.87022 61.9741 8.21166 61.8291 8.90234C61.7097 9.47359 61.5217 10.0109 61.2744 10.5225C61.0613 10.9401 60.6864 11.5367 60.4307 11.8438C60.1835 12.1506 59.7059 12.6023 59.3818 12.8496C59.0578 13.0969 58.4517 13.4721 58.0254 13.6768C57.5991 13.8814 56.9513 14.1291 56.5762 14.2314C56.2011 14.3252 55.6045 14.4361 55.2549 14.4873C54.9053 14.5299 53.3786 14.5723 49.1152 14.5723V21.3936H44.5957V0.333008H49.7285ZM29.9463 4.09277C29.5882 4.09279 29.0597 4.14373 28.7783 4.21191C28.497 4.27159 28.0025 4.4339 27.6699 4.57031C27.3375 4.70669 26.8346 4.97968 26.5361 5.17578C26.2462 5.37189 25.7939 5.74712 25.5381 6.00293C25.2824 6.25866 24.9071 6.71034 24.7109 7.00879C24.5148 7.2987 24.2507 7.76842 24.1143 8.0498C23.9864 8.33123 23.7989 8.86809 23.7051 9.24316C23.5857 9.70362 23.5342 10.1985 23.5342 10.7783C23.5342 11.2473 23.5768 11.8612 23.6279 12.1426C23.6791 12.424 23.8331 12.9444 23.9609 13.2939C24.0975 13.6436 24.3959 14.2228 24.626 14.5723C24.8562 14.9219 25.2655 15.4335 25.5469 15.7148C25.8197 15.9877 26.2801 16.372 26.5615 16.5596C26.843 16.7557 27.3375 17.0199 27.6699 17.1562C28.0025 17.2927 28.5144 17.4628 28.8213 17.5225C29.1282 17.5906 29.6732 17.6425 30.0312 17.6426C30.3978 17.6426 30.978 17.5826 31.3105 17.5059C31.6516 17.4291 32.1977 17.2416 32.5303 17.0967C32.8628 16.9432 33.315 16.6962 33.5537 16.5342C33.7839 16.3722 34.1846 16.0473 34.4404 15.8086C34.6877 15.5783 35.0627 15.1524 35.2588 14.8711C35.4549 14.5897 35.7447 14.1207 35.8896 13.8223C36.0346 13.5324 36.2395 12.9948 36.3418 12.6367C36.4952 12.0996 36.5381 11.7585 36.5381 10.8633C36.5381 10.0703 36.4946 9.59243 36.3838 9.2002C36.2985 8.8932 36.0945 8.35627 35.9326 8.00684C35.7621 7.65723 35.4634 7.13686 35.2588 6.85547C35.0627 6.5742 34.6877 6.14824 34.4404 5.91797C34.1848 5.67938 33.784 5.35548 33.5537 5.19336C33.315 5.03136 32.8628 4.78337 32.5303 4.62988C32.1978 4.47646 31.6352 4.29749 31.2686 4.2207C30.9104 4.14396 30.3129 4.08425 29.9463 4.09277ZM49.1152 4.51074V10.3945C53.6755 10.3945 54.3927 10.3603 54.8105 10.2666C55.1003 10.1984 55.5353 10.0451 55.7656 9.92578C56.0044 9.8064 56.3718 9.53322 56.585 9.31152C56.8151 9.06434 57.0363 8.72322 57.1387 8.45898C57.2325 8.18612 57.3008 7.7847 57.3008 7.45215C57.3007 7.08562 57.2326 6.7275 57.1133 6.41211C56.9939 6.09671 56.7892 5.78141 56.542 5.53418C56.3288 5.32101 55.9788 5.05669 55.7656 4.96289C55.5524 4.86057 55.1514 4.71539 54.8701 4.63867C54.4608 4.53644 53.8293 4.51074 51.7324 4.51074H49.1152Z" fill="white"/>
</svg>
