<?xml version="1.0" encoding="utf-8"?><svg viewBox="0 0 24 24" xmlns="http://www.w3.org/2000/svg" xmlns:xlink="http://www.w3.org/1999/xlink"><style>:root>svg{display:none}:root>svg:target{display:block}</style><svg viewBox="0 0 24 24" id="close" xmlns="http://www.w3.org/2000/svg"><path d="M23.361 21.15l-9.302-9.29 9.303-9.184.317-.317c.317-.422.422-.95.211-1.372-.211-.422-.529-.845-1.057-.95-.529-.106-1.057 0-1.586.528l-9.302 9.29-6.66-6.651L2.643.564C2.22.038 1.69-.068 1.163.038.634.142.21.565 0 1.092v.74c.106.422.423.738.74 1.055l9.09 9.079-9.09 9.078c-.317.317-.634.634-.74 1.056v.633c.211.634.529 1.056 1.163 1.267h.634c.423-.106.74-.422 1.057-.633l9.091-9.079 9.09 9.079c.318.316.53.527.952.633h.635l.21-.106c.53-.21.952-.738.952-1.372.106-.633-.105-.95-.422-1.372z"/></svg><svg viewBox="0 0 13 11" id="email" xmlns="http://www.w3.org/2000/svg"><path d="M4.193 5.734L.325 1.216C.112 1.579 0 1.996 0 2.417v5.856c0 .455.13.9.373 1.283l3.82-3.822zM5.371 5.533a1.485 1.485 0 002.258 0L11.977.454a2.376 2.376 0 00-1.37-.43H2.393c-.49 0-.967.15-1.369.43l4.348 5.08zM12.677 1.216l-3.87 4.52 3.82 3.82A2.39 2.39 0 0013 8.273V2.417a2.347 2.347 0 00-.323-1.201zM8.116 6.493a2.517 2.517 0 01-3.23 0l-3.792 3.79c.386.25.836.383 1.298.383h8.218c.46 0 .912-.132 1.298-.384L8.116 6.493z"/></svg><svg viewBox="0 0 12 14" id="location" xmlns="http://www.w3.org/2000/svg"><path fill-rule="evenodd" clip-rule="evenodd" d="M6.182 13.756C8.579 12.433 11.2 8.475 11.2 5.619A5.597 5.597 0 005.6.025 5.597 5.597 0 000 5.619c0 2.856 2.621 6.814 5.018 8.137.364.2.8.2 1.164 0zM5.6 7.865a2.268 2.268 0 100-4.536 2.268 2.268 0 000 4.536z"/></svg><svg viewBox="0 0 23 18" id="telegram" xmlns="http://www.w3.org/2000/svg"><path d="M19.002.649c.46-.163 1.117-.378 1.465-.474.467-.133.753-.17 1.07-.14.253.014.522.088.633.17.111.074.246.266.309.43.087.236.087.45.008 1.176a67.446 67.446 0 01-.325 2.443c-.127.86-.412 2.584-.626 3.85a360.617 360.617 0 01-.8 4.405 152.871 152.871 0 01-.515 2.665 6.217 6.217 0 01-.332.992c-.119.237-.333.533-.467.644-.23.193-.317.215-.793.215-.396 0-.641-.044-.934-.17-.214-.097-1.838-1.089-3.604-2.2-1.767-1.11-3.343-2.139-3.517-2.287-.167-.148-.357-.377-.412-.51a.81.81 0 01-.064-.445c.032-.11.167-.348.301-.525.135-.178 1.26-1.215 2.503-2.303a191.488 191.488 0 003.13-2.783c.482-.445.942-.896 1.013-1.015.103-.148.111-.237.056-.348-.053-.098-.159-.148-.317-.148-.182 0-1.323.681-4.769 2.821C9.52 8.667 7.334 9.999 7.16 10.066c-.175.074-.515.17-.753.215-.356.074-.57.066-1.172-.023a24.345 24.345 0 01-2.012-.48c-.713-.2-1.505-.445-1.767-.534-.261-.096-.57-.244-.689-.34-.158-.119-.222-.237-.222-.415 0-.17.064-.296.254-.466.142-.134.404-.304.578-.385.174-.082 2.329-.963 4.792-1.962 2.464-1 5.276-2.132 6.258-2.517.982-.385 2.67-1.044 3.763-1.459A95.43 95.43 0 0119.002.65z"/></svg><svg viewBox="0 0 20 20" id="whatsapp" xmlns="http://www.w3.org/2000/svg"><path fill-rule="evenodd" clip-rule="evenodd" d="M10.043.025C4.805.025.545 4.286.545 9.525a9.43 9.43 0 001.81 5.568l-1.184 3.53 3.651-1.167a9.424 9.424 0 005.226 1.569c5.237 0 9.497-4.261 9.497-9.5s-4.26-9.5-9.497-9.5h-.005zM7.39 4.85c-.185-.44-.324-.457-.603-.469a5.36 5.36 0 00-.319-.01c-.363 0-.742.105-.971.34-.28.285-.972.95-.972 2.312 0 1.363.994 2.68 1.128 2.865.14.184 1.938 3.021 4.73 4.178 2.182.904 2.83.82 3.327.714.726-.156 1.636-.692 1.865-1.34.229-.648.229-1.2.162-1.318-.067-.117-.252-.184-.53-.324-.28-.14-1.637-.81-1.894-.9-.25-.094-.49-.06-.68.208-.269.374-.531.754-.743.982-.168.18-.441.202-.67.107-.307-.129-1.167-.43-2.228-1.374-.82-.732-1.38-1.642-1.541-1.916-.162-.279-.017-.441.112-.592.14-.173.273-.296.413-.458.14-.162.217-.246.307-.436.095-.184.028-.374-.04-.513-.066-.14-.625-1.503-.853-2.056z"/></svg></svg>